# xmcd CD database file
#
# Track frame offsets:
#	183
#	16383
#	28770
#	44185
#	57170
#	74290
#	85598
#	97000
#	106948
#	119365
#	133070
#	146658
#	157553
#	170915
#	180943
#	190415
#	204243
#	217405
#	228175
#	241143
#
# Disc length: 3379 seconds
#
# Revision: 1
# Processed by: cddbd v1.4PL0 Copyright (c) Steve Scherf et al.
# Submitted via: NeoAudio 9.9.9
#
DISCID=1a0d3114
DTITLE=Billie Jo Spears - The best of
DYEAR=1995
DGENRE=Country
TTITLE0=Blanket on the ground
TTITLE1=What I've got in mind
TTITLE2=Sing me an old fashioned love song
TTITLE3=I love you because
TTITLE4=For the good times
TTITLE5=True love
TTITLE6=I'll share my world with ou
TTITLE7=Put a little love in your heart
TTITLE8=Marty Gray
TTITLE9=Games people play
TTITLE10=Heartaches by the number
TTITLE11=Paper roses
TTITLE12=Amazing grace
TTITLE13=Snowbird
TTITLE14=Yours love
TTITLE15=What a love I have in you
TTITLE16=Your old love letters
TTITLE17=Breakaway
TTITLE18=Today I started loving you again
TTITLE19=Help me make it through the night
EXTD=YEAR: 1995
EXTT0=
EXTT1=
EXTT2=
EXTT3=
EXTT4=
EXTT5=
EXTT6=
EXTT7=
EXTT8=
EXTT9=
EXTT10=
EXTT11=
EXTT12=
EXTT13=
EXTT14=
EXTT15=
EXTT16=
EXTT17=
EXTT18=
EXTT19=
PLAYORDER=
